# xmcd
#
# Track frame offsets: 
#        187
#        14770
#        26165
#        39315
#        56190
#        67945
#        85400
#        98835
#        112377
#        122732
#        138737
#        156880
#
# Disc length: 2301 seconds
#
# Revision: 2
# Processed by: cddbd v1.5PL3 Copyright (c) Steve Scherf et al.
# Submitted via: ExactAudioCopy v0.95a4
#
DISCID=af08fb0c
DTITLE=Roy Book Binder - Bookeroo!
DYEAR=1988
DGENRE=
TTITLE0=Friend Like Me
TTITLE1=Gonna Get Myself A Motorhome
TTITLE2=Something Different
TTITLE3=Mississippi Blues
TTITLE4=Gin Done Done It
TTITLE5=I'm Going Home
TTITLE6=Good Gal
TTITLE7=Nobody Knows I'm Hurtin'
TTITLE8=Waiting For A Train
TTITLE9=Cigarette Blues
TTITLE10=My Road Is Rough And Rocky
TTITLE11=Tell Me How Do You Feel
EXTD=
EXTT0=
EXTT1=
EXTT2=
EXTT3=
EXTT4=
EXTT5=
EXTT6=
EXTT7=
EXTT8=
EXTT9=
EXTT10=
EXTT11=
PLAYORDER=
